<svg width="206" height="66" viewBox="0 0 206 66" fill="none" xmlns="http://www.w3.org/2000/svg">
<path d="M14.2188 5.42188L4.90625 13.7656L14.2188 21.9219H8.35938L0.8125 15.2969C0.34375 14.9115 0.109375 14.401 0.109375 13.7656C0.109375 13.474 0.166667 13.1979 0.28125 12.9375C0.40625 12.6771 0.572917 12.4531 0.78125 12.2656L8.42188 5.42188H14.2188ZM45.3937 2.59375L34.7844 24.2031C34.6177 24.5365 34.3677 24.8021 34.0344 25C33.7115 25.2083 33.3521 25.3125 32.9562 25.3125C32.5708 25.3125 32.2115 25.2083 31.8781 25C31.5552 24.8021 31.3052 24.5365 31.1281 24.2031L20.5344 2.59375H25.0812L32.9562 18.7344L40.8625 2.59375H45.3937ZM56.1625 4.64062H52.1V0.96875H56.1625V4.64062ZM56.1625 25H52.1V8.10938H56.1625V25ZM81.2281 25H70.2125C69.65 25 69.0354 24.901 68.3688 24.7031C67.7021 24.5052 67.0823 24.1823 66.5094 23.7344C65.9469 23.276 65.4729 22.6875 65.0875 21.9688C64.7125 21.2396 64.525 20.349 64.525 19.2969V13.7969C64.525 13.4115 64.5667 13.0052 64.65 12.5781C64.7438 12.151 64.8844 11.7292 65.0719 11.3125C65.2594 10.8854 65.499 10.4792 65.7906 10.0938C66.0927 9.70833 66.4521 9.36979 66.8688 9.07812C67.2958 8.78646 67.7854 8.55208 68.3375 8.375C68.8896 8.19792 69.5146 8.10938 70.2125 8.10938H81.2281V12.1719H70.2125C69.6813 12.1719 69.275 12.3073 68.9938 12.5781C68.7229 12.849 68.5875 13.2656 68.5875 13.8281V19.2969C68.5875 19.8281 68.7281 20.2344 69.0094 20.5156C69.2906 20.7969 69.7021 20.9375 70.2438 20.9375H81.2281V25ZM104.747 12.1719H97.6531V25H93.5437V12.1719H88.2625V8.10938H93.5437V2.59375H97.6531V8.10938H104.747V12.1719ZM130.531 19.2969C130.531 19.9948 130.443 20.625 130.266 21.1875C130.089 21.7396 129.854 22.2292 129.562 22.6562C129.271 23.0729 128.932 23.4323 128.547 23.7344C128.161 24.026 127.755 24.2656 127.328 24.4531C126.911 24.6406 126.484 24.7812 126.047 24.875C125.62 24.9583 125.214 25 124.828 25H117.5C116.938 25 116.323 24.901 115.656 24.7031C114.99 24.5052 114.37 24.1823 113.797 23.7344C113.234 23.276 112.76 22.6875 112.375 21.9688C112 21.2396 111.812 20.349 111.812 19.2969V13.7969C111.812 12.7552 112 11.875 112.375 11.1562C112.76 10.4271 113.234 9.83854 113.797 9.39062C114.37 8.93229 114.99 8.60417 115.656 8.40625C116.323 8.20833 116.938 8.10938 117.5 8.10938H124.828C125.87 8.10938 126.755 8.29688 127.484 8.67188C128.214 9.04688 128.802 9.52083 129.25 10.0938C129.698 10.6562 130.021 11.2708 130.219 11.9375C130.427 12.6042 130.531 13.224 130.531 13.7969V19.2969ZM126.469 13.8281C126.469 13.2656 126.328 12.849 126.047 12.5781C125.766 12.3073 125.359 12.1719 124.828 12.1719H117.531C116.99 12.1719 116.578 12.3125 116.297 12.5938C116.016 12.8646 115.875 13.2656 115.875 13.7969V19.2969C115.875 19.8281 116.016 20.2344 116.297 20.5156C116.578 20.7969 116.99 20.9375 117.531 20.9375H124.828C125.38 20.9375 125.792 20.7969 126.062 20.5156C126.333 20.2344 126.469 19.8281 126.469 19.2969V13.8281ZM153.581 12.1719H144.441C143.889 12.1719 143.472 12.3125 143.191 12.5938C142.909 12.8646 142.769 13.2656 142.769 13.7969V25H138.706V13.7969C138.706 13.099 138.795 12.474 138.972 11.9219C139.149 11.3698 139.383 10.8854 139.675 10.4688C139.977 10.0417 140.321 9.68229 140.706 9.39062C141.092 9.08854 141.493 8.84375 141.909 8.65625C142.336 8.46875 142.764 8.33333 143.191 8.25C143.628 8.15625 144.034 8.10938 144.409 8.10938H153.581V12.1719ZM54.1625 51.125C54.1625 52.0521 54.0479 52.8802 53.8188 53.6094C53.5896 54.3385 53.2771 54.9844 52.8813 55.5469C52.4958 56.099 52.0479 56.5729 51.5375 56.9688C51.0271 57.3646 50.4906 57.6927 49.9281 57.9531C49.376 58.2031 48.8135 58.3854 48.2406 58.5C47.6781 58.6146 47.1469 58.6719 46.6469 58.6719L55.1313 66H48.85L40.3813 58.6719H37.4594V54.6094H46.6469C47.1573 54.5677 47.6208 54.4635 48.0375 54.2969C48.4646 54.1198 48.8292 53.8854 49.1313 53.5938C49.4438 53.3021 49.6833 52.9531 49.85 52.5469C50.0167 52.1302 50.1 51.6562 50.1 51.125V48.5625C50.1 48.3333 50.0688 48.1615 50.0063 48.0469C49.9542 47.9219 49.8813 47.8333 49.7875 47.7812C49.7042 47.7188 49.6104 47.6823 49.5063 47.6719C49.4125 47.6615 49.324 47.6562 49.2406 47.6562H35.8344V66H31.7719V45.6406C31.7719 45.3594 31.824 45.0938 31.9281 44.8438C32.0323 44.5938 32.1729 44.375 32.35 44.1875C32.5375 44 32.7563 43.8542 33.0063 43.75C33.2563 43.6458 33.5271 43.5938 33.8188 43.5938H49.2406C50.1469 43.5938 50.9125 43.7604 51.5375 44.0938C52.1625 44.4167 52.6677 44.8281 53.0531 45.3281C53.449 45.8177 53.7302 46.349 53.8969 46.9219C54.074 47.4948 54.1625 48.0312 54.1625 48.5312V51.125ZM80.5719 54.7031C80.5719 55.2656 80.4729 55.875 80.275 56.5312C80.0771 57.1771 79.7542 57.7812 79.3063 58.3438C78.8688 58.8958 78.2906 59.3594 77.5719 59.7344C76.8635 60.1094 75.999 60.2969 74.9781 60.2969H67.65V56.4375H74.9781C75.5302 56.4375 75.9573 56.2708 76.2594 55.9375C76.5615 55.5938 76.7125 55.1719 76.7125 54.6719C76.7125 54.1406 76.5406 53.724 76.1969 53.4219C75.8635 53.1198 75.4573 52.9688 74.9781 52.9688H67.65C67.0979 52.9688 66.6708 53.1406 66.3688 53.4844C66.0667 53.8177 65.9156 54.2344 65.9156 54.7344V60.4062C65.9156 60.9479 66.0823 61.3698 66.4156 61.6719C66.7594 61.974 67.1813 62.125 67.6813 62.125H74.9781V66H67.65C67.0875 66 66.4781 65.901 65.8219 65.7031C65.176 65.5052 64.5719 65.1875 64.0094 64.75C63.4573 64.3021 62.9938 63.724 62.6188 63.0156C62.2438 62.2969 62.0563 61.4271 62.0563 60.4062V54.7031C62.0563 54.1406 62.1552 53.5365 62.3531 52.8906C62.551 52.2344 62.8688 51.6302 63.3063 51.0781C63.7542 50.5156 64.3323 50.0469 65.0406 49.6719C65.7594 49.2969 66.6292 49.1094 67.65 49.1094H74.9781C75.5406 49.1094 76.1448 49.2083 76.7906 49.4062C77.4469 49.6042 78.051 49.9271 78.6031 50.375C79.1656 50.8125 79.6344 51.3906 80.0094 52.1094C80.3844 52.8177 80.5719 53.6823 80.5719 54.7031ZM106.825 66H102.762V56.625C102.762 56.0938 102.669 55.6198 102.481 55.2031C102.304 54.776 102.059 54.4115 101.747 54.1094C101.434 53.8073 101.065 53.5781 100.637 53.4219C100.221 53.2552 99.7677 53.1719 99.2781 53.1719H92.1687V66H88.1062V51.125C88.1062 50.8438 88.1583 50.5833 88.2625 50.3438C88.3667 50.0938 88.5125 49.8802 88.7 49.7031C88.8875 49.5156 89.1062 49.3698 89.3562 49.2656C89.6062 49.1615 89.8719 49.1094 90.1531 49.1094H99.3094C99.8198 49.1094 100.356 49.1667 100.919 49.2812C101.492 49.3958 102.054 49.5833 102.606 49.8438C103.169 50.0938 103.7 50.4167 104.2 50.8125C104.71 51.1979 105.158 51.6719 105.544 52.2344C105.94 52.7865 106.252 53.4271 106.481 54.1562C106.71 54.8854 106.825 55.7083 106.825 56.625V66ZM131.188 50.3594C131.354 50.7448 131.396 51.1354 131.312 51.5312C131.24 51.9271 131.062 52.2708 130.781 52.5625L121.391 61.9375H131.156V66H116.5C116.083 66 115.703 65.8854 115.359 65.6562C115.026 65.4167 114.776 65.1146 114.609 64.75C114.453 64.3646 114.411 63.974 114.484 63.5781C114.568 63.1719 114.76 62.8177 115.062 62.5156L124.406 53.1719H114.641V49.1094H129.328C129.734 49.1094 130.104 49.2188 130.438 49.4375C130.781 49.6562 131.031 49.9635 131.188 50.3594ZM157.55 60.2969C157.55 60.9948 157.461 61.625 157.284 62.1875C157.107 62.7396 156.873 63.2292 156.581 63.6562C156.29 64.0729 155.951 64.4323 155.566 64.7344C155.18 65.026 154.774 65.2656 154.347 65.4531C153.93 65.6406 153.503 65.7812 153.066 65.875C152.639 65.9583 152.232 66 151.847 66H144.519C143.956 66 143.342 65.901 142.675 65.7031C142.008 65.5052 141.389 65.1823 140.816 64.7344C140.253 64.276 139.779 63.6875 139.394 62.9688C139.019 62.2396 138.831 61.349 138.831 60.2969V54.7969C138.831 53.7552 139.019 52.875 139.394 52.1562C139.779 51.4271 140.253 50.8385 140.816 50.3906C141.389 49.9323 142.008 49.6042 142.675 49.4062C143.342 49.2083 143.956 49.1094 144.519 49.1094H151.847C152.889 49.1094 153.774 49.2969 154.503 49.6719C155.232 50.0469 155.821 50.5208 156.269 51.0938C156.717 51.6562 157.04 52.2708 157.238 52.9375C157.446 53.6042 157.55 54.224 157.55 54.7969V60.2969ZM153.488 54.8281C153.488 54.2656 153.347 53.849 153.066 53.5781C152.784 53.3073 152.378 53.1719 151.847 53.1719H144.55C144.008 53.1719 143.597 53.3125 143.316 53.5938C143.034 53.8646 142.894 54.2656 142.894 54.7969V60.2969C142.894 60.8281 143.034 61.2344 143.316 61.5156C143.597 61.7969 144.008 61.9375 144.55 61.9375H151.847C152.399 61.9375 152.81 61.7969 153.081 61.5156C153.352 61.2344 153.488 60.8281 153.488 60.2969V54.8281ZM183.522 43.5938L169.381 66H165.022L179.178 43.5938H183.522ZM196.962 46.4219L204.619 53.2656C204.827 53.4531 204.989 53.6771 205.103 53.9375C205.228 54.1979 205.291 54.474 205.291 54.7656C205.291 55.0677 205.228 55.3542 205.103 55.625C204.978 55.8854 204.806 56.1094 204.587 56.2969L197.025 62.9219H191.181L200.494 54.7656L191.181 46.4219H196.962Z" fill="white"/>
</svg>
