<?xml version="1.0" encoding="UTF-8"?>
<svg xmlns="http://www.w3.org/2000/svg" xmlns:xlink="http://www.w3.org/1999/xlink" width="45pt" height="374.999991pt" viewBox="0 0 45 374.999991" version="1.2">
<defs>
<clipPath id="clip1">
  <path d="M 14.195312 20.699219 L 32.195312 20.699219 L 32.195312 33.449219 L 14.195312 33.449219 Z M 14.195312 20.699219 "/>
</clipPath>
<clipPath id="clip2">
  <path d="M 18 238.164062 L 28 238.164062 L 28 248 L 18 248 Z M 18 238.164062 "/>
</clipPath>
<clipPath id="clip3">
  <path d="M 14.195312 248 L 32.195312 248 L 32.195312 256.164062 L 14.195312 256.164062 Z M 14.195312 248 "/>
</clipPath>
<clipPath id="clip4">
  <path d="M 14.195312 115 L 32.195312 115 L 32.195312 124 L 14.195312 124 Z M 14.195312 115 "/>
</clipPath>
<clipPath id="clip5">
  <path d="M 16 161 L 20 161 L 20 162.878906 L 16 162.878906 Z M 16 161 "/>
</clipPath>
<clipPath id="clip6">
  <path d="M 26 161 L 30 161 L 30 162.878906 L 26 162.878906 Z M 26 161 "/>
</clipPath>
<clipPath id="clip7">
  <path d="M 18 144.878906 L 28 144.878906 L 28 151 L 18 151 Z M 18 144.878906 "/>
</clipPath>
<clipPath id="clip8">
  <path d="M 25 182 L 32.195312 182 L 32.195312 189 L 25 189 Z M 25 182 "/>
</clipPath>
<clipPath id="clip9">
  <path d="M 18 187 L 29 187 L 29 193.972656 L 18 193.972656 Z M 18 187 "/>
</clipPath>
<clipPath id="clip10">
  <path d="M 14.195312 182 L 21 182 L 21 189 L 14.195312 189 Z M 14.195312 182 "/>
</clipPath>
<clipPath id="clip11">
  <path d="M 16 175.972656 L 22 175.972656 L 22 182 L 16 182 Z M 16 175.972656 "/>
</clipPath>
<clipPath id="clip12">
  <path d="M 24 175.972656 L 30 175.972656 L 30 182 L 24 182 Z M 24 175.972656 "/>
</clipPath>
<clipPath id="clip13">
  <path d="M 14.195312 208 L 32.195312 208 L 32.195312 224 L 14.195312 224 Z M 14.195312 208 "/>
</clipPath>
</defs>
<g id="surface1">
<g clip-path="url(#clip1)" clip-rule="nonzero">
<path style=" stroke:none;fill-rule:nonzero;fill:rgb(0%,0%,0%);fill-opacity:1;" d="M 15.183594 20.730469 C 14.933594 20.726562 14.71875 20.8125 14.539062 20.992188 C 14.363281 21.171875 14.273438 21.390625 14.273438 21.648438 C 14.273438 21.902344 14.363281 22.121094 14.539062 22.300781 C 14.71875 22.480469 14.933594 22.566406 15.183594 22.5625 L 31.300781 22.5625 C 31.550781 22.566406 31.765625 22.480469 31.941406 22.300781 C 32.121094 22.121094 32.210938 21.902344 32.210938 21.648438 C 32.210938 21.390625 32.121094 21.171875 31.941406 20.992188 C 31.765625 20.8125 31.550781 20.726562 31.300781 20.730469 Z M 15.183594 26.234375 C 14.933594 26.230469 14.71875 26.316406 14.539062 26.496094 C 14.363281 26.675781 14.273438 26.894531 14.273438 27.152344 C 14.273438 27.40625 14.363281 27.625 14.539062 27.804688 C 14.71875 27.984375 14.933594 28.070312 15.183594 28.066406 L 31.300781 28.066406 C 31.550781 28.070312 31.765625 27.984375 31.941406 27.804688 C 32.121094 27.625 32.210938 27.40625 32.210938 27.152344 C 32.210938 26.894531 32.121094 26.675781 31.941406 26.496094 C 31.765625 26.316406 31.550781 26.230469 31.300781 26.234375 Z M 15.183594 31.738281 C 14.933594 31.734375 14.71875 31.820312 14.539062 32 C 14.363281 32.179688 14.273438 32.398438 14.273438 32.65625 C 14.273438 32.910156 14.363281 33.128906 14.539062 33.308594 C 14.71875 33.488281 14.933594 33.574219 15.183594 33.570312 L 31.300781 33.570312 C 31.550781 33.574219 31.765625 33.488281 31.941406 33.308594 C 32.121094 33.128906 32.210938 32.910156 32.210938 32.65625 C 32.210938 32.398438 32.121094 32.179688 31.941406 32 C 31.765625 31.820312 31.550781 31.734375 31.300781 31.738281 Z M 15.183594 31.738281 "/>
</g>
<g clip-path="url(#clip2)" clip-rule="nonzero">
<path style=" stroke:none;fill-rule:nonzero;fill:rgb(0%,0%,0%);fill-opacity:1;" d="M 23.195312 247.523438 C 25.777344 247.523438 27.878906 245.425781 27.878906 242.84375 C 27.878906 240.261719 25.777344 238.164062 23.195312 238.164062 C 20.617188 238.164062 18.515625 240.261719 18.515625 242.84375 C 18.515625 245.425781 20.617188 247.523438 23.195312 247.523438 Z M 23.195312 247.523438 "/>
</g>
<g clip-path="url(#clip3)" clip-rule="nonzero">
<path style=" stroke:none;fill-rule:nonzero;fill:rgb(0%,0%,0%);fill-opacity:1;" d="M 27.910156 248.136719 C 27.78125 248.054688 27.613281 248.066406 27.496094 248.160156 C 26.261719 249.15625 24.777344 249.683594 23.195312 249.683594 C 21.617188 249.683594 20.132812 249.15625 18.902344 248.160156 C 18.78125 248.066406 18.617188 248.054688 18.484375 248.136719 C 15.800781 249.789062 14.195312 252.65625 14.195312 255.804688 C 14.195312 256.003906 14.359375 256.164062 14.558594 256.164062 L 31.835938 256.164062 C 32.035156 256.164062 32.195312 256.003906 32.195312 255.804688 C 32.195312 252.65625 30.59375 249.789062 27.910156 248.136719 Z M 27.910156 248.136719 "/>
</g>
<path style=" stroke:none;fill-rule:nonzero;fill:rgb(0%,0%,0%);fill-opacity:1;" d="M 23.195312 119.160156 L 17.007812 123.925781 L 17.007812 130.308594 L 21.980469 130.308594 L 21.980469 125.628906 L 24.625 125.628906 L 24.625 130.308594 L 29.386719 130.308594 L 29.386719 123.925781 Z M 23.195312 119.160156 "/>
<g clip-path="url(#clip4)" clip-rule="nonzero">
<path style=" stroke:none;fill-rule:nonzero;fill:rgb(0%,0%,0%);fill-opacity:1;" d="M 29.648438 120.222656 L 29.648438 116.957031 L 27.039062 116.957031 L 27.039062 118.214844 L 23.195312 115.257812 L 14.195312 122.183594 L 15.441406 123.796875 L 23.195312 117.828125 L 30.953125 123.796875 L 32.195312 122.183594 Z M 29.648438 120.222656 "/>
</g>
<g clip-path="url(#clip5)" clip-rule="nonzero">
<path style=" stroke:none;fill-rule:nonzero;fill:rgb(0%,0%,0%);fill-opacity:1;" d="M 19.855469 161.824219 L 16.691406 161.824219 L 16.691406 162.878906 L 19.855469 162.878906 Z M 19.855469 161.824219 "/>
</g>
<g clip-path="url(#clip6)" clip-rule="nonzero">
<path style=" stroke:none;fill-rule:nonzero;fill:rgb(0%,0%,0%);fill-opacity:1;" d="M 29.699219 161.824219 L 26.535156 161.824219 L 26.535156 162.878906 L 29.699219 162.878906 Z M 29.699219 161.824219 "/>
</g>
<path style=" stroke:none;fill-rule:nonzero;fill:rgb(0%,0%,0%);fill-opacity:1;" d="M 15.53125 151.207031 L 15.53125 152.261719 L 16.691406 152.261719 L 16.691406 160.769531 L 29.699219 160.769531 L 29.699219 152.261719 L 30.859375 152.261719 L 30.859375 151.207031 Z M 26.359375 154.371094 L 20.03125 154.371094 L 20.03125 153.316406 L 26.359375 153.316406 Z M 26.359375 154.371094 "/>
<path style=" stroke:none;fill-rule:nonzero;fill:rgb(0%,0%,0%);fill-opacity:1;" d="M 21.789062 147.910156 L 20.910156 148.417969 L 20.910156 149.355469 L 21.789062 149.859375 L 22.667969 149.355469 L 22.667969 148.417969 Z M 21.789062 147.910156 "/>
<path style=" stroke:none;fill-rule:nonzero;fill:rgb(0%,0%,0%);fill-opacity:1;" d="M 24.601562 147.910156 L 23.722656 148.417969 L 23.722656 149.355469 L 24.601562 149.859375 L 25.480469 149.355469 L 25.480469 148.417969 Z M 24.601562 147.910156 "/>
<g clip-path="url(#clip7)" clip-rule="nonzero">
<path style=" stroke:none;fill-rule:nonzero;fill:rgb(0%,0%,0%);fill-opacity:1;" d="M 18.449219 144.878906 L 18.449219 150.152344 L 19.503906 150.152344 L 19.503906 149.554688 L 19.855469 149.355469 L 19.855469 148.417969 L 19.503906 148.214844 L 19.503906 147 L 20.382812 147.503906 L 21.261719 147 L 21.261719 146.0625 L 21.039062 145.933594 L 22.542969 145.933594 L 22.316406 146.0625 L 22.316406 147 L 23.195312 147.503906 L 24.074219 147 L 24.074219 146.0625 L 23.851562 145.933594 L 25.355469 145.933594 L 25.128906 146.0625 L 25.128906 147 L 26.007812 147.503906 L 26.886719 147 L 26.886719 148.214844 L 26.535156 148.417969 L 26.535156 149.355469 L 26.886719 149.554688 L 26.886719 150.152344 L 27.941406 150.152344 L 27.941406 144.878906 Z M 18.449219 144.878906 "/>
</g>
<path style=" stroke:none;fill-rule:nonzero;fill:rgb(0%,0%,0%);fill-opacity:1;" d="M 21.078125 182.472656 C 21.582031 181.863281 22.34375 181.472656 23.195312 181.472656 C 24.050781 181.472656 24.8125 181.863281 25.316406 182.472656 C 25.648438 182.875 25.859375 183.363281 25.925781 183.882812 C 25.988281 184.398438 25.90625 184.925781 25.683594 185.394531 C 25.460938 185.867188 25.109375 186.265625 24.667969 186.546875 C 24.230469 186.824219 23.71875 186.972656 23.195312 186.972656 C 22.675781 186.972656 22.164062 186.824219 21.722656 186.546875 C 21.285156 186.265625 20.933594 185.867188 20.710938 185.394531 C 20.488281 184.925781 20.402344 184.398438 20.46875 183.882812 C 20.53125 183.363281 20.742188 182.875 21.074219 182.472656 Z M 21.078125 182.472656 "/>
<g clip-path="url(#clip8)" clip-rule="nonzero">
<path style=" stroke:none;fill-rule:nonzero;fill:rgb(0%,0%,0%);fill-opacity:1;" d="M 26.945312 184.222656 C 26.945312 183.589844 26.792969 182.996094 26.515625 182.472656 L 30.695312 182.472656 C 31.09375 182.472656 31.476562 182.632812 31.757812 182.914062 C 32.039062 183.195312 32.195312 183.574219 32.195312 183.972656 L 32.195312 184.472656 C 32.195312 186.058594 30.992188 187.683594 28.882812 188.257812 C 28.664062 187.867188 28.347656 187.542969 27.964844 187.316406 C 27.582031 187.09375 27.144531 186.972656 26.695312 186.972656 L 25.746094 186.972656 C 26.125 186.621094 26.429688 186.195312 26.636719 185.722656 C 26.839844 185.25 26.949219 184.738281 26.945312 184.222656 Z M 26.945312 184.222656 "/>
</g>
<g clip-path="url(#clip9)" clip-rule="nonzero">
<path style=" stroke:none;fill-rule:nonzero;fill:rgb(0%,0%,0%);fill-opacity:1;" d="M 26.695312 187.972656 C 26.894531 187.972656 27.089844 188.011719 27.273438 188.085938 C 27.453125 188.160156 27.621094 188.273438 27.757812 188.410156 C 27.898438 188.550781 28.007812 188.714844 28.085938 188.898438 C 28.160156 189.082031 28.199219 189.277344 28.195312 189.472656 L 28.195312 189.972656 C 28.195312 191.945312 26.335938 193.972656 23.195312 193.972656 C 20.058594 193.972656 18.195312 191.945312 18.195312 189.972656 L 18.195312 189.472656 C 18.195312 189.277344 18.234375 189.082031 18.308594 188.898438 C 18.386719 188.714844 18.496094 188.550781 18.636719 188.410156 C 18.773438 188.273438 18.941406 188.160156 19.121094 188.085938 C 19.304688 188.011719 19.5 187.972656 19.695312 187.972656 Z M 26.695312 187.972656 "/>
</g>
<g clip-path="url(#clip10)" clip-rule="nonzero">
<path style=" stroke:none;fill-rule:nonzero;fill:rgb(0%,0%,0%);fill-opacity:1;" d="M 14.195312 184.472656 C 14.195312 186.058594 15.402344 187.683594 17.511719 188.257812 C 17.730469 187.867188 18.046875 187.542969 18.429688 187.316406 C 18.8125 187.09375 19.25 186.972656 19.695312 186.972656 L 20.648438 186.972656 C 20.269531 186.621094 19.964844 186.195312 19.757812 185.722656 C 19.554688 185.25 19.445312 184.738281 19.445312 184.222656 C 19.445312 183.589844 19.601562 182.996094 19.878906 182.472656 L 15.695312 182.472656 C 15.300781 182.472656 14.917969 182.632812 14.636719 182.914062 C 14.355469 183.195312 14.195312 183.574219 14.195312 183.972656 Z M 14.195312 184.472656 "/>
</g>
<g clip-path="url(#clip11)" clip-rule="nonzero">
<path style=" stroke:none;fill-rule:nonzero;fill:rgb(0%,0%,0%);fill-opacity:1;" d="M 21.945312 178.722656 C 21.945312 177.992188 21.65625 177.292969 21.140625 176.777344 C 20.625 176.261719 19.925781 175.972656 19.195312 175.972656 C 18.46875 175.972656 17.769531 176.261719 17.253906 176.777344 C 16.738281 177.292969 16.445312 177.992188 16.445312 178.722656 C 16.445312 179.453125 16.738281 180.152344 17.253906 180.667969 C 17.769531 181.183594 18.46875 181.472656 19.195312 181.472656 C 19.925781 181.472656 20.625 181.183594 21.140625 180.667969 C 21.65625 180.152344 21.945312 179.453125 21.945312 178.722656 Z M 21.945312 178.722656 "/>
</g>
<g clip-path="url(#clip12)" clip-rule="nonzero">
<path style=" stroke:none;fill-rule:nonzero;fill:rgb(0%,0%,0%);fill-opacity:1;" d="M 29.945312 178.722656 C 29.945312 177.992188 29.65625 177.292969 29.140625 176.777344 C 28.625 176.261719 27.925781 175.972656 27.195312 175.972656 C 26.46875 175.972656 25.769531 176.261719 25.253906 176.777344 C 24.738281 177.292969 24.445312 177.992188 24.445312 178.722656 C 24.445312 179.453125 24.738281 180.152344 25.253906 180.667969 C 25.769531 181.183594 26.46875 181.472656 27.195312 181.472656 C 27.925781 181.472656 28.625 181.183594 29.140625 180.667969 C 29.65625 180.152344 29.945312 179.453125 29.945312 178.722656 Z M 29.945312 178.722656 "/>
</g>
<g clip-path="url(#clip13)" clip-rule="nonzero">
<path style=" stroke:none;fill-rule:nonzero;fill:rgb(0%,0%,0%);fill-opacity:1;" d="M 19.820312 209.320312 C 19.820312 209.019531 19.703125 208.734375 19.492188 208.523438 C 19.28125 208.3125 18.996094 208.195312 18.695312 208.195312 L 16.445312 208.195312 C 16.148438 208.195312 15.863281 208.3125 15.652344 208.523438 C 15.441406 208.734375 15.320312 209.019531 15.320312 209.320312 L 15.320312 222.820312 L 14.757812 222.820312 C 14.609375 222.820312 14.46875 222.878906 14.363281 222.984375 C 14.257812 223.089844 14.195312 223.230469 14.195312 223.382812 C 14.195312 223.53125 14.257812 223.671875 14.363281 223.777344 C 14.46875 223.882812 14.609375 223.945312 14.757812 223.945312 L 31.632812 223.945312 C 31.785156 223.945312 31.925781 223.882812 32.03125 223.777344 C 32.136719 223.671875 32.195312 223.53125 32.195312 223.382812 C 32.195312 223.230469 32.136719 223.089844 32.03125 222.984375 C 31.925781 222.878906 31.785156 222.820312 31.632812 222.820312 L 31.070312 222.820312 L 31.070312 219.445312 C 31.070312 219.144531 30.953125 218.859375 30.742188 218.648438 C 30.53125 218.4375 30.246094 218.320312 29.945312 218.320312 L 27.695312 218.320312 C 27.398438 218.320312 27.113281 218.4375 26.902344 218.648438 C 26.691406 218.859375 26.570312 219.144531 26.570312 219.445312 L 26.570312 222.820312 L 25.445312 222.820312 L 25.445312 214.945312 C 25.445312 214.644531 25.328125 214.359375 25.117188 214.148438 C 24.90625 213.9375 24.621094 213.820312 24.320312 213.820312 L 22.070312 213.820312 C 21.773438 213.820312 21.488281 213.9375 21.277344 214.148438 C 21.066406 214.359375 20.945312 214.644531 20.945312 214.945312 L 20.945312 222.820312 L 19.820312 222.820312 Z M 19.820312 209.320312 "/>
</g>
</g>
</svg>
