<svg width="16" height="16" viewBox="0 0 16 16" fill="none" xmlns="http://www.w3.org/2000/svg">
<g clip-path="url(#clip0)">
<path d="M14.4199 8.71001L15.7724 8.53751L14.9337 9.58751L14.4199 8.71001Z" fill="#424242"/>
<path d="M3.43366 5.68874C3.33366 5.68874 3.23616 5.64124 3.17491 5.55249C1.95366 3.75874 0.683661 4.32124 0.671161 4.32749C0.514911 4.39999 0.328661 4.33249 0.256161 4.17624C0.221266 4.10114 0.217594 4.01527 0.245951 3.93746C0.274307 3.85966 0.332376 3.79628 0.407411 3.76124C0.424911 3.75374 2.17491 2.97374 3.69116 5.20124C3.72313 5.24809 3.74172 5.30277 3.74493 5.3594C3.74813 5.41602 3.73582 5.47245 3.70933 5.5226C3.68284 5.57275 3.64317 5.61472 3.5946 5.644C3.54602 5.67328 3.49038 5.68875 3.43366 5.68874V5.68874Z" fill="#424242"/>
<path d="M5.38382 4.96375C5.22882 4.96375 5.09382 4.84875 5.07382 4.69C4.80507 2.5725 3.48882 2.5325 3.43257 2.53125C3.26132 2.52875 3.12132 2.38875 3.12257 2.2175C3.12257 2.04625 3.26007 1.9075 3.43132 1.90625C3.46257 1.90625 5.35257 1.9325 5.69382 4.61C5.71507 4.78125 5.59507 4.9375 5.42257 4.96C5.41007 4.96375 5.39757 4.96375 5.38382 4.96375V4.96375Z" fill="#424242"/>
<path d="M7.58125 1.98749C8.03125 1.58374 8.655 1.45999 9.25 1.65874C9.505 1.74249 9.72875 1.86749 9.9175 2.03124C11.4975 3.40499 10.645 5.96249 9.875 8.01624C9.87 8.02874 9.52375 9.07499 9.15125 9.15624C8.8475 9.22249 8.495 8.77 8.495 8.77C8.47875 8.755 8.10375 8.2725 8.0625 8.2075C7.39375 7.23 6.9475 6.14374 6.7325 4.97749C6.685 4.71874 6.6625 4.43249 6.67375 4.13374C6.6775 4.01874 6.68625 3.90249 6.7025 3.78624C6.71625 3.67749 6.735 3.56874 6.75875 3.46124C6.87625 2.94249 7.11625 2.43374 7.5325 2.03249L7.58125 1.98749V1.98749Z" fill="#BDBDBD"/>
<path d="M12.3762 2.26625C13.0462 2.1875 13.6937 2.47625 14.1087 3.04C14.2875 3.28 14.41 3.53875 14.4775 3.80875C15.035 6.075 12.6137 7.85875 10.5912 9.235C10.5787 9.24375 9.59123 9.975 9.19873 9.80875C8.87998 9.67375 8.84873 9.03375 8.84873 9.03375C8.84373 9.01 8.81248 8.32875 8.81623 8.24375C8.83498 6.92375 9.12623 5.64625 9.67998 4.44625C9.80248 4.18 9.96623 3.90375 10.1687 3.64C10.2462 3.5375 10.3287 3.4375 10.4187 3.34125C10.5012 3.25125 10.5875 3.16375 10.6787 3.08125C11.1187 2.68375 11.665 2.375 12.3025 2.27625L12.3762 2.26625V2.26625Z" fill="#ECEFF1"/>
<path d="M12.2075 12.7625C13.8243 12.7625 15.135 11.7115 15.135 10.415C15.135 9.11852 13.8243 8.0675 12.2075 8.0675C10.5907 8.0675 9.28003 9.11852 9.28003 10.415C9.28003 11.7115 10.5907 12.7625 12.2075 12.7625Z" fill="#FCC21B"/>
<path d="M13.365 13.0767C14.5384 12.5254 14.9324 10.8923 14.2449 9.42888C13.5575 7.9655 12.0489 7.22608 10.8755 7.77734C9.702 8.3286 9.30803 9.96179 9.99549 11.4252C10.683 12.8885 12.1915 13.628 13.365 13.0767Z" fill="#424242"/>
<path d="M12.2976 13.4833C13.471 12.9321 13.865 11.2989 13.1776 9.83549C12.4901 8.37211 10.9815 7.63269 9.80808 8.18395C8.63462 8.73521 8.24065 10.3684 8.92811 11.8318C9.61557 13.2952 11.1241 14.0346 12.2976 13.4833Z" fill="#FCC21B"/>
<path d="M11.0525 14.1293C12.2259 13.578 12.6199 11.9448 11.9324 10.4814C11.245 9.01806 9.73641 8.27864 8.56296 8.8299C7.3895 9.38116 6.99553 11.0144 7.68299 12.4777C8.37045 13.9411 9.87902 14.6805 11.0525 14.1293Z" fill="#424242"/>
<path d="M9.83861 14.6193C11.0121 14.0681 11.406 12.4349 10.7186 10.9715C10.0311 9.50812 8.52255 8.76869 7.34909 9.31996C6.17564 9.87122 5.78166 11.5044 6.46912 12.9678C7.15658 14.4312 8.66515 15.1706 9.83861 14.6193Z" fill="#FCC21B"/>
<path d="M5.30001 12.245C4.99251 12.245 4.80001 12.2088 4.77876 12.205C4.6974 12.1889 4.62576 12.1411 4.57959 12.0722C4.53342 12.0033 4.51648 11.9189 4.53251 11.8375C4.54874 11.7565 4.59634 11.6851 4.66493 11.639C4.73353 11.5929 4.81758 11.5757 4.89876 11.5913C4.91876 11.595 6.13626 11.8088 7.38626 10.9675C7.52876 10.8713 7.72376 10.9088 7.82001 11.0525C7.91626 11.1963 7.87876 11.39 7.73501 11.4863C6.78251 12.1275 5.85626 12.245 5.30001 12.245V12.245Z" fill="#424242"/>
<path d="M5.81747 13.5325C5.66872 13.5325 5.53747 13.4263 5.50997 13.275C5.47997 13.105 5.59247 12.9438 5.76122 12.9125C5.78122 12.9088 6.99247 12.665 7.85122 11.4288C7.87455 11.3949 7.90433 11.3661 7.93884 11.3438C7.97336 11.3215 8.01194 11.3063 8.05236 11.299C8.09278 11.2917 8.13424 11.2924 8.17438 11.3012C8.21451 11.3099 8.25252 11.3265 8.28622 11.35C8.42747 11.4488 8.46372 11.6425 8.36497 11.785C7.34997 13.2475 5.93247 13.5175 5.87247 13.5275C5.85497 13.5313 5.83622 13.5325 5.81747 13.5325V13.5325Z" fill="#424242"/>
<path d="M8.61866 14.4338C8.57131 14.4339 8.52456 14.4232 8.48194 14.4026C8.43933 14.3819 8.40197 14.3518 8.3727 14.3146C8.34343 14.2774 8.32301 14.234 8.313 14.1877C8.30299 14.1414 8.30364 14.0935 8.31491 14.0475C8.31866 14.03 8.59616 12.8463 8.26241 11.39C8.25316 11.3499 8.2519 11.3085 8.25871 11.2679C8.26552 11.2274 8.28026 11.1886 8.30209 11.1537C8.32392 11.1189 8.35241 11.0887 8.38593 11.0649C8.41944 11.0411 8.45733 11.0241 8.49741 11.015C8.53747 11.0058 8.57895 11.0045 8.6195 11.0113C8.66004 11.0181 8.69884 11.0329 8.73367 11.0547C8.76851 11.0765 8.7987 11.105 8.8225 11.1385C8.84631 11.172 8.86327 11.2099 8.87241 11.25C9.24241 12.8613 8.93616 14.1425 8.92366 14.1963C8.90632 14.264 8.86696 14.3241 8.81175 14.3671C8.75655 14.4101 8.68863 14.4336 8.61866 14.4338V14.4338Z" fill="#424242"/>
<path d="M9.77994 14.425C9.76494 14.425 9.74994 14.4238 9.73494 14.4213C9.65293 14.4094 9.57897 14.3655 9.52929 14.2992C9.47961 14.2329 9.45827 14.1495 9.46994 14.0675C9.47244 14.0525 9.63244 12.8463 9.15619 11.4275C9.10119 11.2638 9.18994 11.0863 9.35369 11.0313C9.51869 10.9763 9.69494 11.065 9.74994 11.2288C10.2762 12.7963 10.0974 14.1013 10.0899 14.155C10.0791 14.2297 10.0419 14.298 9.98503 14.3475C9.92815 14.3971 9.85538 14.4246 9.77994 14.425V14.425Z" fill="#424242"/>
<path d="M10.4811 9.16375C10.4124 9.07 10.5599 8.78125 10.4774 8.705C10.3924 8.6275 10.1186 8.80375 10.0211 8.74625C9.92239 8.6875 9.94864 8.36375 9.84114 8.325C9.73364 8.28625 9.54614 8.55125 9.43239 8.5325C9.31989 8.51375 9.22989 8.20125 9.11489 8.20125C9.00114 8.20125 8.91364 8.515 8.79989 8.535C8.68864 8.55375 8.50239 8.2875 8.39239 8.325C8.28614 8.36125 8.30114 8.68625 8.19739 8.74125C8.09739 8.79375 7.83864 8.59625 7.74489 8.665C7.65114 8.73375 7.76239 9.04 7.68364 9.12C7.60114 9.2025 7.29489 9.09125 7.22864 9.1825C7.15989 9.27625 7.35989 9.53375 7.30864 9.63375C7.25614 9.7375 6.93114 9.7275 6.89614 9.83625C6.86114 9.94625 7.13364 10.125 7.11864 10.2375C7.10364 10.3512 6.79364 10.4525 6.79864 10.5662C6.80364 10.6812 7.12114 10.7512 7.14739 10.8625C7.17364 10.9737 6.92489 11.1812 6.97364 11.2862C7.02114 11.3887 7.34114 11.3325 7.40989 11.4262C7.47864 11.52 7.33114 11.8087 7.41364 11.885C7.49864 11.9625 7.77239 11.7862 7.86989 11.8437C7.96864 11.9025 7.94239 12.2262 8.04989 12.265C8.15739 12.3037 8.34489 12.0387 8.45864 12.0575C8.57114 12.0762 8.66114 12.3887 8.77614 12.3887C8.88989 12.3887 8.97739 12.075 9.09114 12.055C9.20239 12.0362 9.38864 12.3025 9.49864 12.265C9.60489 12.2287 9.58989 11.9037 9.69364 11.8487C9.79364 11.7962 10.0524 11.9937 10.1461 11.925C10.2399 11.8562 10.1286 11.55 10.2074 11.47C10.2899 11.3875 10.5961 11.4987 10.6624 11.4075C10.7311 11.3137 10.5311 11.0562 10.5824 10.9562C10.6349 10.8525 10.9599 10.8625 10.9949 10.7537C11.0299 10.6437 10.7574 10.465 10.7724 10.3525C10.7874 10.2387 11.0974 10.1375 11.0924 10.0237C11.0874 9.90875 10.7699 9.83875 10.7436 9.7275C10.7174 9.61625 10.9661 9.40875 10.9174 9.30375C10.8699 9.2 10.5499 9.2575 10.4811 9.16375Z" fill="#FFB300"/>
<path d="M6.26559 11.1801C8.28062 10.645 9.51984 8.72643 9.03347 6.89488C8.54709 5.06333 6.51929 4.01236 4.50426 4.54746C2.48922 5.08257 1.25 7.00112 1.73638 8.83267C2.22276 10.6642 4.25055 11.7152 6.26559 11.1801Z" fill="#FCC21B"/>
<path d="M5.67373 10.1262C5.31248 10.1262 5.02123 9.9975 4.97748 9.9775C4.90244 9.94246 4.84438 9.87909 4.81602 9.80128C4.78766 9.72348 4.79133 9.6376 4.82623 9.5625C4.84344 9.52538 4.8678 9.49202 4.89792 9.46432C4.92803 9.43662 4.96331 9.41513 5.00174 9.40109C5.04017 9.38704 5.08099 9.3807 5.12187 9.38245C5.16275 9.38419 5.20289 9.39398 5.23998 9.41125C5.24998 9.415 5.62873 9.58125 5.94248 9.45375C6.11123 9.385 6.23623 9.24 6.32498 9.01C6.33978 8.97163 6.362 8.93655 6.39038 8.90679C6.41877 8.87702 6.45274 8.85315 6.49037 8.83654C6.528 8.81994 6.56853 8.81092 6.60965 8.81001C6.65076 8.8091 6.69166 8.81632 6.72998 8.83125C6.89123 8.89375 6.97123 9.075 6.90873 9.23625C6.75498 9.63125 6.50748 9.9 6.17373 10.035C6.00123 10.1012 5.83123 10.1262 5.67373 10.1262V10.1262Z" fill="#424242"/>
<path d="M6.72623 6.97374C6.81373 6.93999 6.90373 6.93624 6.99248 6.95249C7.12748 6.97749 7.25748 7.05374 7.35998 7.17124C7.42248 7.24499 7.47623 7.33249 7.51373 7.43249C7.54248 7.51499 7.55623 7.59749 7.55998 7.67874C7.56748 7.83749 7.52748 7.98624 7.44873 8.10374C7.38873 8.19499 7.30623 8.26874 7.20248 8.30874C6.90123 8.42124 6.54998 8.21749 6.41748 7.84874C6.28498 7.48249 6.42498 7.08874 6.72623 6.97374V6.97374Z" fill="#424242"/>
<path d="M4.14629 9.195C3.82754 9.24125 3.51254 8.96875 3.44629 8.58125C3.38129 8.1975 3.58754 7.84375 3.90879 7.7975C4.22754 7.74875 4.54254 8.02375 4.60629 8.41C4.67254 8.795 4.46504 9.145 4.14629 9.195V9.195Z" fill="#424242"/>
</g>
<defs>
<clipPath id="clip0">
<rect width="16" height="16" fill="white"/>
</clipPath>
</defs>
</svg>
