<svg width="48" height="48" viewBox="0 0 48 48" fill="none" xmlns="http://www.w3.org/2000/svg">
<path d="M15.0938 45.1875H6.65625V48H15.0938V45.1875Z" fill="black"/>
<path d="M41.3438 45.1875H32.9062V48H41.3438V45.1875Z" fill="black"/>
<path d="M3.5625 16.875V19.6875H6.65625V42.375H41.3438V19.6875H44.4375V16.875H3.5625ZM32.4375 25.3125H15.5625V22.5H32.4375V25.3125Z" fill="black"/>
<path d="M20.25 8.09082L17.9062 9.43847V11.9363L20.25 13.284L22.5938 11.9363V9.43847L20.25 8.09082Z" fill="black"/>
<path d="M27.75 8.09082L25.4062 9.43847V11.9363L27.75 13.284L30.0938 11.9363V9.43847L27.75 8.09082Z" fill="black"/>
<path d="M11.3438 0V14.0625H14.1562V12.4755L15.0938 11.9364V9.43856L14.1562 8.8995V5.65519L16.5 7.00284L18.8438 5.65519V3.15731L18.2441 2.8125H22.2559L21.6562 3.15731V5.65519L24 7.00284L26.3438 5.65519V3.15731L25.7441 2.8125H29.7559L29.1562 3.15731V5.65519L31.5 7.00284L33.8438 5.65519V8.8995L32.9062 9.43856V11.9364L33.8438 12.4755V14.0625H36.6562V0H11.3438Z" fill="black"/>
</svg>
