<?xml version="1.0" encoding="UTF-8"?>
<svg xmlns="http://www.w3.org/2000/svg" xmlns:xlink="http://www.w3.org/1999/xlink" width="42pt" height="254.999984pt" viewBox="0 0 42 254.999984" version="1.2">
<defs>
<clipPath id="clip1">
  <path d="M 12.601562 19.832031 L 28.8125 19.832031 L 28.8125 31.832031 L 12.601562 31.832031 Z M 12.601562 19.832031 "/>
</clipPath>
<clipPath id="clip2">
  <path d="M 17 174.785156 L 26 174.785156 L 26 184 L 17 184 Z M 17 174.785156 "/>
</clipPath>
<clipPath id="clip3">
  <path d="M 13.25 183 L 29.460938 183 L 29.460938 191 L 13.25 191 Z M 13.25 183 "/>
</clipPath>
<clipPath id="clip4">
  <path d="M 13.25 60 L 29.460938 60 L 29.460938 68 L 13.25 68 Z M 13.25 60 "/>
</clipPath>
<clipPath id="clip5">
  <path d="M 15 102 L 19 102 L 19 103.929688 L 15 103.929688 Z M 15 102 "/>
</clipPath>
<clipPath id="clip6">
  <path d="M 24 102 L 28 102 L 28 103.929688 L 24 103.929688 Z M 24 102 "/>
</clipPath>
<clipPath id="clip7">
  <path d="M 17 87.71875 L 26 87.71875 L 26 93 L 17 93 Z M 17 87.71875 "/>
</clipPath>
<clipPath id="clip8">
  <path d="M 23 122 L 29.460938 122 L 29.460938 128 L 23 128 Z M 23 122 "/>
</clipPath>
<clipPath id="clip9">
  <path d="M 16 127 L 26 127 L 26 132.953125 L 16 132.953125 Z M 16 127 "/>
</clipPath>
<clipPath id="clip10">
  <path d="M 13.25 122 L 20 122 L 20 128 L 13.25 128 Z M 13.25 122 "/>
</clipPath>
<clipPath id="clip11">
  <path d="M 15 116.742188 L 21 116.742188 L 21 122 L 15 122 Z M 15 116.742188 "/>
</clipPath>
<clipPath id="clip12">
  <path d="M 22 116.742188 L 28 116.742188 L 28 122 L 22 122 Z M 22 116.742188 "/>
</clipPath>
<clipPath id="clip13">
  <path d="M 13.25 146 L 29.460938 146 L 29.460938 161 L 13.25 161 Z M 13.25 146 "/>
</clipPath>
</defs>
<g id="surface1">
<g clip-path="url(#clip1)" clip-rule="nonzero">
<path style=" stroke:none;fill-rule:nonzero;fill:rgb(0%,0%,0%);fill-opacity:1;" d="M 13.488281 19.863281 C 13.261719 19.859375 13.070312 19.941406 12.910156 20.113281 C 12.75 20.28125 12.667969 20.488281 12.667969 20.734375 C 12.667969 20.976562 12.75 21.183594 12.910156 21.351562 C 13.070312 21.523438 13.261719 21.605469 13.488281 21.601562 L 28.003906 21.601562 C 28.230469 21.605469 28.421875 21.523438 28.582031 21.351562 C 28.742188 21.183594 28.824219 20.976562 28.824219 20.734375 C 28.824219 20.488281 28.742188 20.28125 28.582031 20.113281 C 28.421875 19.941406 28.230469 19.859375 28.003906 19.863281 Z M 13.488281 25.085938 C 13.261719 25.082031 13.070312 25.167969 12.910156 25.335938 C 12.75 25.507812 12.667969 25.714844 12.667969 25.957031 C 12.667969 26.199219 12.75 26.40625 12.910156 26.578125 C 13.070312 26.75 13.261719 26.832031 13.488281 26.828125 L 28.003906 26.828125 C 28.230469 26.832031 28.421875 26.75 28.582031 26.578125 C 28.742188 26.40625 28.824219 26.199219 28.824219 25.957031 C 28.824219 25.714844 28.742188 25.507812 28.582031 25.335938 C 28.421875 25.167969 28.230469 25.082031 28.003906 25.085938 Z M 13.488281 30.3125 C 13.261719 30.308594 13.070312 30.390625 12.910156 30.5625 C 12.75 30.734375 12.667969 30.941406 12.667969 31.183594 C 12.667969 31.425781 12.75 31.632812 12.910156 31.800781 C 13.070312 31.972656 13.261719 32.058594 13.488281 32.054688 L 28.003906 32.054688 C 28.230469 32.058594 28.421875 31.972656 28.582031 31.800781 C 28.742188 31.632812 28.824219 31.425781 28.824219 31.183594 C 28.824219 30.941406 28.742188 30.734375 28.582031 30.5625 C 28.421875 30.390625 28.230469 30.308594 28.003906 30.3125 Z M 13.488281 30.3125 "/>
</g>
<g clip-path="url(#clip2)" clip-rule="nonzero">
<path style=" stroke:none;fill-rule:nonzero;fill:rgb(0%,0%,0%);fill-opacity:1;" d="M 21.355469 183.214844 C 23.679688 183.214844 25.570312 181.324219 25.570312 179 C 25.570312 176.675781 23.679688 174.785156 21.355469 174.785156 C 19.03125 174.785156 17.140625 176.675781 17.140625 179 C 17.140625 181.324219 19.03125 183.214844 21.355469 183.214844 Z M 21.355469 183.214844 "/>
</g>
<g clip-path="url(#clip3)" clip-rule="nonzero">
<path style=" stroke:none;fill-rule:nonzero;fill:rgb(0%,0%,0%);fill-opacity:1;" d="M 25.601562 183.765625 C 25.484375 183.695312 25.335938 183.703125 25.226562 183.792969 C 24.117188 184.6875 22.78125 185.160156 21.355469 185.160156 C 19.933594 185.160156 18.59375 184.6875 17.488281 183.792969 C 17.378906 183.703125 17.230469 183.695312 17.113281 183.765625 C 14.695312 185.257812 13.25 187.839844 13.25 190.675781 C 13.25 190.851562 13.394531 191 13.574219 191 L 29.136719 191 C 29.316406 191 29.460938 190.851562 29.460938 190.675781 C 29.460938 187.839844 28.019531 185.257812 25.601562 183.765625 Z M 25.601562 183.765625 "/>
</g>
<path style=" stroke:none;fill-rule:nonzero;fill:rgb(0%,0%,0%);fill-opacity:1;" d="M 21.355469 63.539062 L 15.78125 67.832031 L 15.78125 73.578125 L 20.261719 73.578125 L 20.261719 69.367188 L 22.640625 69.367188 L 22.640625 73.578125 L 26.933594 73.578125 L 26.933594 67.832031 Z M 21.355469 63.539062 "/>
<g clip-path="url(#clip4)" clip-rule="nonzero">
<path style=" stroke:none;fill-rule:nonzero;fill:rgb(0%,0%,0%);fill-opacity:1;" d="M 27.167969 64.496094 L 27.167969 61.558594 L 24.816406 61.558594 L 24.816406 62.6875 L 21.355469 60.027344 L 13.25 66.261719 L 14.371094 67.71875 L 21.355469 62.339844 L 28.34375 67.71875 L 29.460938 66.261719 Z M 27.167969 64.496094 "/>
</g>
<g clip-path="url(#clip5)" clip-rule="nonzero">
<path style=" stroke:none;fill-rule:nonzero;fill:rgb(0%,0%,0%);fill-opacity:1;" d="M 18.347656 102.980469 L 15.5 102.980469 L 15.5 103.929688 L 18.347656 103.929688 Z M 18.347656 102.980469 "/>
</g>
<g clip-path="url(#clip6)" clip-rule="nonzero">
<path style=" stroke:none;fill-rule:nonzero;fill:rgb(0%,0%,0%);fill-opacity:1;" d="M 27.214844 102.980469 L 24.363281 102.980469 L 24.363281 103.929688 L 27.214844 103.929688 Z M 27.214844 102.980469 "/>
</g>
<path style=" stroke:none;fill-rule:nonzero;fill:rgb(0%,0%,0%);fill-opacity:1;" d="M 14.453125 93.417969 L 14.453125 94.367188 L 15.5 94.367188 L 15.5 102.03125 L 27.214844 102.03125 L 27.214844 94.367188 L 28.257812 94.367188 L 28.257812 93.417969 Z M 24.207031 96.269531 L 18.507812 96.269531 L 18.507812 95.320312 L 24.207031 95.320312 Z M 24.207031 96.269531 "/>
<path style=" stroke:none;fill-rule:nonzero;fill:rgb(0%,0%,0%);fill-opacity:1;" d="M 20.089844 90.453125 L 19.296875 90.90625 L 19.296875 91.75 L 20.089844 92.207031 L 20.882812 91.75 L 20.882812 90.90625 Z M 20.089844 90.453125 "/>
<path style=" stroke:none;fill-rule:nonzero;fill:rgb(0%,0%,0%);fill-opacity:1;" d="M 22.625 90.453125 L 21.832031 90.90625 L 21.832031 91.75 L 22.625 92.207031 L 23.414062 91.75 L 23.414062 90.90625 Z M 22.625 90.453125 "/>
<g clip-path="url(#clip7)" clip-rule="nonzero">
<path style=" stroke:none;fill-rule:nonzero;fill:rgb(0%,0%,0%);fill-opacity:1;" d="M 17.082031 87.71875 L 17.082031 92.46875 L 18.03125 92.46875 L 18.03125 91.933594 L 18.347656 91.75 L 18.347656 90.90625 L 18.03125 90.726562 L 18.03125 89.628906 L 18.824219 90.085938 L 19.617188 89.628906 L 19.617188 88.785156 L 19.414062 88.667969 L 20.769531 88.667969 L 20.566406 88.785156 L 20.566406 89.628906 L 21.355469 90.085938 L 22.148438 89.628906 L 22.148438 88.785156 L 21.945312 88.667969 L 23.300781 88.667969 L 23.097656 88.785156 L 23.097656 89.628906 L 23.890625 90.085938 L 24.679688 89.628906 L 24.679688 90.726562 L 24.363281 90.90625 L 24.363281 91.75 L 24.679688 91.933594 L 24.679688 92.46875 L 25.632812 92.46875 L 25.632812 87.71875 Z M 17.082031 87.71875 "/>
</g>
<path style=" stroke:none;fill-rule:nonzero;fill:rgb(0%,0%,0%);fill-opacity:1;" d="M 19.445312 122.597656 C 19.902344 122.046875 20.585938 121.695312 21.355469 121.695312 C 22.125 121.695312 22.8125 122.046875 23.265625 122.597656 C 23.566406 122.957031 23.753906 123.398438 23.8125 123.863281 C 23.871094 124.332031 23.796875 124.804688 23.597656 125.226562 C 23.394531 125.652344 23.078125 126.011719 22.683594 126.265625 C 22.285156 126.515625 21.824219 126.648438 21.355469 126.648438 C 20.886719 126.648438 20.425781 126.515625 20.03125 126.265625 C 19.632812 126.011719 19.316406 125.652344 19.117188 125.226562 C 18.914062 124.804688 18.839844 124.332031 18.898438 123.863281 C 18.957031 123.398438 19.148438 122.957031 19.445312 122.597656 Z M 19.445312 122.597656 "/>
<g clip-path="url(#clip8)" clip-rule="nonzero">
<path style=" stroke:none;fill-rule:nonzero;fill:rgb(0%,0%,0%);fill-opacity:1;" d="M 24.734375 124.171875 C 24.734375 123.601562 24.59375 123.066406 24.34375 122.597656 L 28.113281 122.597656 C 28.46875 122.597656 28.8125 122.738281 29.066406 122.992188 C 29.320312 123.246094 29.460938 123.589844 29.460938 123.945312 L 29.460938 124.398438 C 29.460938 125.828125 28.375 127.289062 26.476562 127.804688 C 26.28125 127.453125 25.996094 127.164062 25.652344 126.960938 C 25.304688 126.757812 24.910156 126.648438 24.507812 126.648438 L 23.652344 126.648438 C 23.996094 126.332031 24.265625 125.949219 24.453125 125.523438 C 24.640625 125.097656 24.734375 124.636719 24.734375 124.171875 Z M 24.734375 124.171875 "/>
</g>
<g clip-path="url(#clip9)" clip-rule="nonzero">
<path style=" stroke:none;fill-rule:nonzero;fill:rgb(0%,0%,0%);fill-opacity:1;" d="M 24.507812 127.550781 C 24.6875 127.550781 24.863281 127.582031 25.027344 127.652344 C 25.191406 127.71875 25.339844 127.820312 25.464844 127.945312 C 25.589844 128.070312 25.691406 128.21875 25.757812 128.382812 C 25.824219 128.546875 25.859375 128.722656 25.859375 128.902344 L 25.859375 129.351562 C 25.859375 131.125 24.183594 132.953125 21.355469 132.953125 C 18.527344 132.953125 16.851562 131.125 16.851562 129.351562 L 16.851562 128.902344 C 16.851562 128.722656 16.886719 128.546875 16.957031 128.382812 C 17.023438 128.21875 17.121094 128.070312 17.25 127.945312 C 17.375 127.820312 17.523438 127.71875 17.6875 127.652344 C 17.851562 127.582031 18.027344 127.550781 18.203125 127.550781 Z M 24.507812 127.550781 "/>
</g>
<g clip-path="url(#clip10)" clip-rule="nonzero">
<path style=" stroke:none;fill-rule:nonzero;fill:rgb(0%,0%,0%);fill-opacity:1;" d="M 13.25 124.398438 C 13.25 125.828125 14.335938 127.289062 16.238281 127.804688 C 16.433594 127.453125 16.71875 127.164062 17.0625 126.960938 C 17.410156 126.757812 17.804688 126.648438 18.203125 126.648438 L 19.058594 126.648438 C 18.71875 126.332031 18.445312 125.949219 18.261719 125.523438 C 18.074219 125.097656 17.980469 124.636719 17.980469 124.171875 C 17.980469 123.601562 18.121094 123.066406 18.371094 122.597656 L 14.601562 122.597656 C 14.242188 122.597656 13.898438 122.738281 13.644531 122.992188 C 13.394531 123.246094 13.25 123.589844 13.25 123.945312 Z M 13.25 124.398438 "/>
</g>
<g clip-path="url(#clip11)" clip-rule="nonzero">
<path style=" stroke:none;fill-rule:nonzero;fill:rgb(0%,0%,0%);fill-opacity:1;" d="M 20.230469 119.21875 C 20.230469 118.5625 19.96875 117.929688 19.503906 117.46875 C 19.039062 117.003906 18.410156 116.742188 17.753906 116.742188 C 17.097656 116.742188 16.46875 117.003906 16.003906 117.46875 C 15.539062 117.929688 15.277344 118.5625 15.277344 119.21875 C 15.277344 119.875 15.539062 120.503906 16.003906 120.96875 C 16.46875 121.433594 17.097656 121.695312 17.753906 121.695312 C 18.410156 121.695312 19.039062 121.433594 19.503906 120.96875 C 19.96875 120.503906 20.230469 119.875 20.230469 119.21875 Z M 20.230469 119.21875 "/>
</g>
<g clip-path="url(#clip12)" clip-rule="nonzero">
<path style=" stroke:none;fill-rule:nonzero;fill:rgb(0%,0%,0%);fill-opacity:1;" d="M 27.4375 119.21875 C 27.4375 118.5625 27.175781 117.929688 26.710938 117.46875 C 26.246094 117.003906 25.617188 116.742188 24.960938 116.742188 C 24.300781 116.742188 23.671875 117.003906 23.207031 117.46875 C 22.742188 117.929688 22.484375 118.5625 22.484375 119.21875 C 22.484375 119.875 22.742188 120.503906 23.207031 120.96875 C 23.671875 121.433594 24.300781 121.695312 24.960938 121.695312 C 25.617188 121.695312 26.246094 121.433594 26.710938 120.96875 C 27.175781 120.503906 27.4375 119.875 27.4375 119.21875 Z M 27.4375 119.21875 "/>
</g>
<g clip-path="url(#clip13)" clip-rule="nonzero">
<path style=" stroke:none;fill-rule:nonzero;fill:rgb(0%,0%,0%);fill-opacity:1;" d="M 18.316406 147.789062 C 18.316406 147.523438 18.210938 147.265625 18.019531 147.074219 C 17.832031 146.882812 17.574219 146.777344 17.304688 146.777344 L 15.277344 146.777344 C 15.007812 146.777344 14.75 146.882812 14.5625 147.074219 C 14.371094 147.265625 14.265625 147.523438 14.265625 147.789062 L 14.265625 159.949219 L 13.757812 159.949219 C 13.621094 159.949219 13.492188 160.003906 13.398438 160.097656 C 13.304688 160.191406 13.25 160.320312 13.25 160.457031 C 13.25 160.589844 13.304688 160.71875 13.398438 160.8125 C 13.492188 160.910156 13.621094 160.960938 13.757812 160.960938 L 28.957031 160.960938 C 29.089844 160.960938 29.21875 160.910156 29.316406 160.8125 C 29.410156 160.71875 29.460938 160.589844 29.460938 160.457031 C 29.460938 160.320312 29.410156 160.191406 29.316406 160.097656 C 29.21875 160.003906 29.089844 159.949219 28.957031 159.949219 L 28.449219 159.949219 L 28.449219 156.910156 C 28.449219 156.640625 28.34375 156.382812 28.152344 156.191406 C 27.960938 156.003906 27.703125 155.894531 27.4375 155.894531 L 25.410156 155.894531 C 25.140625 155.894531 24.882812 156.003906 24.691406 156.191406 C 24.503906 156.382812 24.398438 156.640625 24.398438 156.910156 L 24.398438 159.949219 L 23.382812 159.949219 L 23.382812 152.855469 C 23.382812 152.589844 23.277344 152.332031 23.085938 152.140625 C 22.898438 151.949219 22.640625 151.84375 22.371094 151.84375 L 20.34375 151.84375 C 20.074219 151.84375 19.816406 151.949219 19.628906 152.140625 C 19.4375 152.332031 19.332031 152.589844 19.332031 152.855469 L 19.332031 159.949219 L 18.316406 159.949219 Z M 18.316406 147.789062 "/>
</g>
</g>
</svg>
